<?xml version="1.0" encoding="UTF-8" standalone="no"?>
<svg
   width="70"
   height="70"
   version="1.1"
   id="svg2"
   sodipodi:docname="icon.svg"
   inkscape:export-filename="C:\Users\liamo\Godot Projects\PLUGINS\JSON Blueprint\json-blueprint\addons\json-blueprint\icon.svg"
   inkscape:export-xdpi="96"
   inkscape:export-ydpi="96"
   xml:space="preserve"
   viewBox="0 0 70 69.999999"
   xmlns:inkscape="http://www.inkscape.org/namespaces/inkscape"
   xmlns:sodipodi="http://sodipodi.sourceforge.net/DTD/sodipodi-0.dtd"
   xmlns="http://www.w3.org/2000/svg"
   xmlns:svg="http://www.w3.org/2000/svg"><defs
     id="defs2" /><sodipodi:namedview
     id="namedview2"
     pagecolor="#505050"
     bordercolor="#ffffff"
     borderopacity="1"
     inkscape:showpageshadow="0"
     inkscape:pageopacity="0"
     inkscape:pagecheckerboard="1"
     inkscape:deskcolor="#505050"
     showgrid="false"
     guidecolor="#00ff22"
     guideopacity="0.6"><sodipodi:guide
       position="61.000674,11.502996"
       orientation="0,19.795391"
       id="guide67"
       inkscape:locked="false" /><sodipodi:guide
       position="70,4.0395903"
       orientation="13.878372,0"
       id="guide68"
       inkscape:locked="false" /><sodipodi:guide
       position="70,-7.2246076e-07"
       orientation="0,-19.795391"
       id="guide69"
       inkscape:locked="false" /><sodipodi:guide
       position="56.745086,11.870057"
       orientation="-13.878372,0"
       id="guide70"
       inkscape:locked="false" /><inkscape:page
       x="0"
       y="0"
       width="70"
       height="70"
       id="page2"
       margin="0"
       bleed="0" /></sodipodi:namedview><rect
     style="fill:#ffffff;fill-opacity:0;stroke-width:0;stroke-linecap:square;stroke-miterlimit:8;paint-order:fill markers stroke"
     id="rect81"
     width="70"
     height="70"
     x="0"
     y="8.0173754e-07"
     inkscape:label="placeholder" /><g
     inkscape:groupmode="layer"
     id="layer1"
     inkscape:label="background"
     transform="translate(50.204609,56.121629)"><rect
       style="fill:#5379c6;fill-opacity:1;stroke-width:0;stroke-linecap:square;stroke-miterlimit:8;paint-order:fill markers stroke"
       id="rect2"
       width="59.876911"
       height="70"
       x="-45.143066"
       y="-56.121628"
       ry="7.5774746"
       inkscape:label="main" /></g><rect
     style="fill:#454545;fill-opacity:1;stroke-width:0;stroke-linecap:square;stroke-miterlimit:8;paint-order:fill markers stroke"
     id="rect71"
     width="59.876911"
     height="15.050468"
     x="5.0615425"
     y="48.139256"
     ry="0" /><path
     d="m 14.229094,48.389332 h 2.950948 v 9.282984 q 0,1.820582 -0.320101,2.800899 -0.430137,1.280408 -1.560501,2.060662 -1.130364,0.770247 -2.980958,0.770247 -2.170697,0 -3.3410731,-1.210391 -1.170376,-1.220392 -1.180379,-3.571145 l 2.7908961,-0.320081 q 0.05004,1.260405 0.370121,1.780574 0.480156,0.790256 1.460469,0.790256 0.990318,0 1.40045,-0.560182 0.410133,-0.570183 0.410133,-2.350752 z m 5.351718,9.893175 2.880926,-0.280083 q 0.260084,1.450466 1.050337,2.130686 0.800257,0.680219 2.150691,0.680219 1.43046,0 2.150691,-0.600194 0.730235,-0.610196 0.730235,-1.420455 0,-0.520169 -0.310099,-0.880283 -0.300098,-0.370115 -1.060341,-0.640207 -0.520167,-0.180064 -2.370762,-0.640207 -2.380765,-0.590192 -3.341074,-1.450471 -1.350433,-1.210386 -1.350433,-2.950947 0,-1.120358 0.630202,-2.090671 0.640206,-0.980314 1.830588,-1.490479 1.200386,-0.510163 2.890929,-0.510163 2.760887,0 4.151333,1.210388 1.40045,1.210387 1.470473,3.231037 l -2.960951,0.130029 q -0.190062,-1.130365 -0.820264,-1.620523 -0.620199,-0.500145 -1.870601,-0.500145 -1.290414,0 -2.020649,0.53017 -0.470149,0.340105 -0.470149,0.910294 0,0.520169 0.440139,0.890284 0.560179,0.470135 2.720874,0.980317 2.160694,0.510162 3.191024,1.060342 1.040335,0.540173 1.620521,1.490479 0.59019,0.940299 0.59019,2.330749 0,1.260405 -0.700225,2.360754 -0.700225,1.100355 -1.980637,1.640528 -1.280411,0.530171 -3.191024,0.530171 -2.780894,0 -4.271373,-1.280409 -1.490478,-1.290416 -1.780571,-3.75121 z m 13.814438,-2.47079 q 0,-2.240722 0.670216,-3.761211 0.50016,-1.120359 1.360437,-2.010644 0.870281,-0.890286 1.900612,-1.320424 1.370436,-0.580186 3.161013,-0.580186 3.241042,0 5.181667,2.010646 1.950626,2.010644 1.950626,5.591796 0,3.551141 -1.930622,5.561789 -1.930618,2.000641 -5.161658,2.000641 -3.271049,0 -5.20167,-1.990639 -1.930621,-2.000646 -1.930621,-5.501768 z m 3.050983,-0.100019 q 0,2.490799 1.150369,3.781215 1.150369,1.280414 2.920937,1.280414 1.770567,0 2.900932,-1.270412 1.140367,-1.280409 1.140367,-3.83123 0,-2.52081 -1.110356,-3.761206 -1.100355,-1.240401 -2.930943,-1.240401 -1.83059,0 -2.950948,1.260405 -1.120358,1.250403 -1.120358,3.781215 z m 13.514339,7.342358 V 48.389332 h 2.880924 l 6.001928,9.793146 v -9.793146 h 2.750882 V 63.054041 H 58.623357 L 52.711456,53.49097 v 9.563071 z"
     id="text58"
     style="font-weight:bold;font-size:4.06172px;font-family:Arial;-inkscape-font-specification:'Arial, Bold';fill:#ffffff;stroke-width:0;stroke-linecap:square;stroke-miterlimit:8;paint-order:fill markers stroke"
     inkscape:label="JSON"
     aria-label="JSON" /><g
     inkscape:groupmode="layer"
     id="layer3"
     inkscape:label="text lines"
     transform="translate(50.204609,56.121629)"><rect
       style="fill:#ffa8a4;fill-opacity:1;stroke:#000000;stroke-width:0;stroke-linecap:square;stroke-miterlimit:8;stroke-dasharray:none;stroke-opacity:1;paint-order:fill markers stroke"
       id="rect5"
       width="39.262405"
       height="4.6835537"
       x="-29.933153"
       y="-48.824219"
       ry="2.3417768"
       inkscape:label="top" /><rect
       style="fill:#a4fff3;fill-opacity:1;stroke:#000000;stroke-width:0;stroke-linecap:square;stroke-miterlimit:8;stroke-dasharray:none;stroke-opacity:1;paint-order:fill markers stroke"
       id="rect62"
       width="39.262405"
       height="4.6835537"
       x="-29.933153"
       y="-33.691765"
       ry="2.3417768"
       inkscape:label="middle" /><rect
       style="fill:#f5ffa4;fill-opacity:1;stroke:#000000;stroke-width:0;stroke-linecap:square;stroke-miterlimit:8;stroke-dasharray:none;stroke-opacity:1;paint-order:fill markers stroke"
       id="rect63"
       width="39.262405"
       height="4.6835537"
       x="-29.933153"
       y="-18.560307"
       ry="2.3417768"
       inkscape:label="bottom" /></g><g
     inkscape:groupmode="layer"
     id="layer2"
     inkscape:label="X"
     transform="rotate(44.366052,-36.360876,92.242196)"><rect
       style="fill:#ffffff;fill-opacity:1;stroke-width:0;stroke-linecap:square;stroke-miterlimit:8;paint-order:fill markers stroke"
       id="rect61"
       width="2.5219097"
       height="10.087639"
       x="-4.6467395"
       y="54.613335"
       transform="rotate(90.136453)" /><rect
       style="fill:#ffffff;fill-opacity:1;stroke-width:0;stroke-linecap:square;stroke-miterlimit:8;paint-order:fill markers stroke"
       id="rect60"
       width="2.5219097"
       height="10.087639"
       x="-60.909878"
       y="-8.5716705" /></g><path
     style="fill:#ffffff;fill-opacity:1;stroke-width:0;stroke-linecap:square;stroke-miterlimit:8;paint-order:fill markers stroke"
     id="path63"
     sodipodi:type="arc"
     sodipodi:cx="14.024906"
     sodipodi:cy="22.48214"
     sodipodi:rx="4.413342"
     sodipodi:ry="4.413342"
     sodipodi:start="0.59865876"
     sodipodi:end="0.59810795"
     sodipodi:open="true"
     sodipodi:arc-type="arc"
     d="m 17.670734,24.969212 a 4.413342,4.413342 0 0 1 -6.132398,1.159097 4.413342,4.413342 0 0 1 -1.159942,-6.132238 4.413342,4.413342 0 0 1 6.132078,-1.160786 4.413342,4.413342 0 0 1 1.161631,6.131919"
     inkscape:label="O" /><path
     style="fill:#ffffff;fill-opacity:1;stroke-width:0;stroke-linecap:square;stroke-miterlimit:8;paint-order:fill markers stroke"
     d="m 18.438243,38.035954 -7.85681,-4.536131 v 9.069945 z"
     id="path72"
     sodipodi:nodetypes="cccc" /></svg>
